<svg width="16" height="16" viewBox="0 0 16 16" fill="none" xmlns="http://www.w3.org/2000/svg">
<path fill-rule="evenodd" clip-rule="evenodd" d="M8 16C12.4183 16 16 12.4183 16 8C16 3.58172 12.4183 0 8 0C3.58172 0 0 3.58172 0 8C0 12.4183 3.58172 16 8 16ZM5.5657 4.43433C5.25328 4.12191 4.74675 4.12191 4.43433 4.43433C4.12191 4.74675 4.12191 5.25328 4.43433 5.5657L6.86864 8.00001L4.43433 10.4343C4.12191 10.7467 4.12191 11.2533 4.43433 11.5657C4.74675 11.8781 5.25328 11.8781 5.5657 11.5657L8.00001 9.13138L10.4343 11.5657C10.7467 11.8781 11.2533 11.8781 11.5657 11.5657C11.8781 11.2533 11.8781 10.7467 11.5657 10.4343L9.13138 8.00001L11.5657 5.5657C11.8781 5.25328 11.8781 4.74675 11.5657 4.43433C11.2533 4.12191 10.7467 4.12191 10.4343 4.43433L8.00001 6.86864L5.5657 4.43433Z" fill="currentColor"/>
</svg>
