<svg width="16" height="16" viewBox="0 0 16 16" fill="none" xmlns="http://www.w3.org/2000/svg">
<path fill-rule="evenodd" clip-rule="evenodd" d="M7.24205 2.11542C4.63716 2.11542 2.56544 4.15946 2.56544 6.63236C2.56544 9.10526 4.63716 11.1493 7.24205 11.1493C9.84694 11.1493 11.9187 9.10526 11.9187 6.63236C11.9187 4.15946 9.84694 2.11542 7.24205 2.11542ZM1 6.63236C1 3.25142 3.81673 0.549988 7.24205 0.549988C10.6674 0.549988 13.4841 3.25142 13.4841 6.63236C13.4841 8.24986 12.8394 9.71183 11.7918 10.7969L14.7921 14.0436C15.0855 14.361 15.066 14.8563 14.7485 15.1496C14.431 15.443 13.9358 15.4235 13.6424 15.106L10.5683 11.7795C9.60299 12.3726 8.46106 12.7147 7.24205 12.7147C3.81673 12.7147 1 10.0133 1 6.63236Z" fill="currentColor"/>
</svg>
