<svg width="20" height="20" viewBox="0 0 20 20" fill="none" xmlns="http://www.w3.org/2000/svg">
<circle cx="10" cy="10" r="10" fill="currentColor"/>
<path fill-rule="evenodd" clip-rule="evenodd" d="M5.3637 5.36358C5.71517 5.01211 6.28502 5.01211 6.63649 5.36358L10.0001 8.72718L13.3637 5.36358C13.7152 5.01211 14.285 5.01211 14.6365 5.36358C14.988 5.71505 14.988 6.2849 14.6365 6.63637L11.2729 9.99998L14.6365 13.3636C14.988 13.7151 14.988 14.2849 14.6365 14.6364C14.285 14.9878 13.7152 14.9878 13.3637 14.6364L10.0001 11.2728L6.63649 14.6364C6.28502 14.9878 5.71517 14.9878 5.3637 14.6364C5.01223 14.2849 5.01223 13.7151 5.3637 13.3636L8.72731 9.99998L5.3637 6.63637C5.01223 6.2849 5.01223 5.71505 5.3637 5.36358Z" fill="white"/>
</svg>
