<svg width="20" height="20" viewBox="0 0 20 20" fill="none" xmlns="http://www.w3.org/2000/svg">
<path fill-rule="evenodd" clip-rule="evenodd" d="M4.36358 4.36358C4.71505 4.01211 5.2849 4.01211 5.63637 4.36358L9.99998 8.72718L14.3636 4.36358C14.7151 4.01211 15.2849 4.01211 15.6364 4.36358C15.9878 4.71505 15.9878 5.2849 15.6364 5.63637L11.2728 9.99998L15.6364 14.3636C15.9878 14.7151 15.9878 15.2849 15.6364 15.6364C15.2849 15.9878 14.7151 15.9878 14.3636 15.6364L9.99998 11.2728L5.63637 15.6364C5.2849 15.9878 4.71505 15.9878 4.36358 15.6364C4.01211 15.2849 4.01211 14.7151 4.36358 14.3636L8.72718 9.99998L4.36358 5.63637C4.01211 5.2849 4.01211 4.71505 4.36358 4.36358Z" fill="currentColor"/>
</svg>
