<svg width="24" height="24" viewBox="0 0 24 24" fill="none" xmlns="http://www.w3.org/2000/svg">
<path fill-rule="evenodd" clip-rule="evenodd" d="M6.26807 6.26807C6.6255 5.91064 7.20501 5.91064 7.56244 6.26807L12 10.7056L16.4376 6.26807C16.795 5.91064 17.3745 5.91064 17.7319 6.26807C18.0894 6.6255 18.0894 7.20501 17.7319 7.56244L13.2944 12L17.7319 16.4376C18.0894 16.795 18.0894 17.3745 17.7319 17.7319C17.3745 18.0894 16.795 18.0894 16.4376 17.7319L12 13.2944L7.56244 17.7319C7.20501 18.0894 6.6255 18.0894 6.26807 17.7319C5.91064 17.3745 5.91064 16.795 6.26807 16.4376L10.7056 12L6.26807 7.56244C5.91064 7.20501 5.91064 6.6255 6.26807 6.26807Z" fill="currentColor"/>
</svg>
